<?xml version="1.0" encoding="UTF-8" standalone="no"?>
<!DOCTYPE svg PUBLIC "-//W3C//DTD SVG 20010904//EN"
              "http://www.w3.org/TR/2001/REC-SVG-20010904/DTD/svg10.dtd">

<svg xmlns="http://www.w3.org/2000/svg"
     width="10.83in" height="8.33in"
     viewBox="0 0 1083 833">
  <path id="Selection"
        fill="none" stroke="black" stroke-width="1"
        d="M 530.00,5.42
           C 530.00,5.42 510.00,8.89 510.00,8.89
             490.45,13.80 469.15,25.60 455.09,40.04
             437.55,58.05 419.77,93.27 406.58,116.00
             406.58,116.00 320.42,265.00 320.42,265.00
             320.42,265.00 293.40,312.00 293.40,312.00
             293.40,312.00 261.58,367.00 261.58,367.00
             250.24,386.77 242.73,398.99 238.58,422.00
             237.64,427.18 237.07,428.49 236.79,434.00
             236.79,434.00 236.79,446.00 236.79,446.00
             236.57,460.25 240.11,476.81 245.45,490.00
             263.74,535.15 308.13,565.92 357.00,566.00
             357.00,566.00 726.00,566.00 726.00,566.00
             792.33,565.90 845.49,511.82 846.99,446.00
             846.99,446.00 846.09,434.00 846.09,434.00
             843.94,403.29 833.53,387.72 818.85,362.00
             818.85,362.00 793.42,318.00 793.42,318.00
             793.42,318.00 692.42,143.00 692.42,143.00
             692.42,143.00 659.42,86.00 659.42,86.00
             650.22,70.14 645.18,59.21 632.71,45.00
             608.25,17.11 567.00,0.92 530.00,5.42 Z
           M 529.00,25.29
           C 565.39,21.84 598.30,34.54 621.68,63.00
             621.68,63.00 649.60,109.00 649.60,109.00
             649.60,109.00 693.42,185.00 693.42,185.00
             693.42,185.00 774.85,326.00 774.85,326.00
             774.85,326.00 804.85,378.00 804.85,378.00
             816.41,398.15 826.71,415.78 827.00,440.00
             827.22,459.04 823.51,476.08 814.51,493.00
             798.13,523.81 763.10,545.95 728.00,546.00
             728.00,546.00 355.00,546.00 355.00,546.00
             318.91,545.94 283.22,521.90 267.27,490.00
             260.26,475.97 256.97,460.56 256.09,445.00
             255.86,440.97 256.61,438.80 256.92,435.00
             259.33,404.79 276.59,381.52 291.15,356.00
             291.15,356.00 386.99,190.00 386.99,190.00
             386.99,190.00 432.58,111.00 432.58,111.00
             439.99,98.08 454.57,71.29 463.29,61.00
             481.21,39.87 502.11,29.73 529.00,25.29 Z
           M 312.00,506.00
           C 312.00,506.00 318.75,493.00 318.75,493.00
             318.75,493.00 335.22,461.00 335.22,461.00
             335.22,461.00 360.74,411.00 360.74,411.00
             360.74,411.00 389.26,354.00 389.26,354.00
             389.26,354.00 461.75,211.00 461.75,211.00
             461.75,211.00 475.75,184.00 475.75,184.00
             486.31,162.90 494.31,139.69 517.00,128.78
             524.44,125.21 529.73,123.82 538.00,124.01
             543.52,124.14 548.94,125.70 554.00,127.87
             574.08,136.49 582.81,152.69 592.26,171.00
             592.26,171.00 603.26,192.00 603.26,192.00
             603.26,192.00 614.26,213.00 614.26,213.00
             614.26,213.00 724.26,423.00 724.26,423.00
             724.26,423.00 755.78,483.00 755.78,483.00
             755.78,483.00 769.00,508.00 769.00,508.00
             775.82,506.00 780.70,499.48 784.87,494.00
             795.72,479.73 802.78,462.08 803.00,444.00
             803.34,414.96 795.64,404.16 781.85,380.00
             781.85,380.00 755.85,335.00 755.85,335.00
             755.85,335.00 632.85,122.00 632.85,122.00
             626.88,111.60 615.43,90.40 608.54,82.00
             593.98,64.25 570.25,51.28 547.00,51.00
             534.55,50.86 529.30,50.87 517.00,54.15
             498.61,59.06 481.91,71.53 471.04,87.00
             471.04,87.00 459.15,107.00 459.15,107.00
             459.15,107.00 442.99,135.00 442.99,135.00
             442.99,135.00 361.58,276.00 361.58,276.00
             361.58,276.00 300.28,382.00 300.28,382.00
             295.51,390.37 289.41,400.10 286.06,409.00
             277.21,432.53 278.50,457.57 289.75,480.00
             293.97,488.41 302.72,503.28 312.00,506.00 Z
           M 346.00,525.00
           C 346.00,525.00 368.00,527.00 368.00,527.00
             368.00,527.00 610.00,527.00 610.00,527.00
             610.00,527.00 689.00,527.00 689.00,527.00
             699.98,527.00 723.39,527.73 733.00,525.00
             733.00,525.00 720.78,500.00 720.78,500.00
             720.78,500.00 698.26,457.00 698.26,457.00
             698.26,457.00 619.00,307.00 619.00,307.00
             610.90,313.88 604.71,330.15 600.58,340.00
             597.14,348.19 595.47,356.30 593.80,365.00
             593.80,365.00 592.18,386.00 592.18,386.00
             595.51,432.78 629.39,463.44 669.00,483.25
             675.64,486.57 689.69,494.20 696.00,496.00
             690.12,496.89 683.83,495.53 678.00,494.59
             678.00,494.59 650.00,488.71 650.00,488.71
             624.70,481.44 602.18,470.37 583.09,451.83
             562.81,432.14 548.13,398.39 548.00,370.00
             548.00,370.00 548.00,357.00 548.00,357.00
             548.04,332.50 557.11,307.40 568.49,286.00
             568.49,286.00 583.67,262.00 583.67,262.00
             586.83,257.31 590.50,253.51 592.00,248.00
             543.86,271.49 521.33,335.64 512.42,385.00
             507.67,411.32 507.24,436.06 491.66,459.00
             486.88,466.03 482.86,470.91 476.00,476.10
             471.97,479.15 463.66,483.87 459.00,485.80
             442.05,492.83 424.97,493.00 407.00,493.00
             407.00,493.00 422.75,459.00 422.75,459.00
             422.75,459.00 446.74,409.00 446.74,409.00
             446.74,409.00 494.74,309.00 494.74,309.00
             494.74,309.00 513.25,270.00 513.25,270.00
             513.25,270.00 541.25,212.00 541.25,212.00
             545.67,203.14 554.58,186.40 554.96,177.00
             555.06,174.45 554.96,171.44 554.20,169.00
             550.12,155.98 532.93,154.43 521.55,172.00
             521.55,172.00 508.75,197.00 508.75,197.00
             508.75,197.00 485.75,243.00 485.75,243.00
             485.75,243.00 416.75,381.00 416.75,381.00
             416.75,381.00 369.75,475.00 369.75,475.00
             369.75,475.00 355.75,504.00 355.75,504.00
             352.80,509.90 347.71,519.02 346.00,525.00 Z
           M 879.00,357.00" />
</svg>
